<?xml version="1.0" encoding="UTF-8" standalone="no"?>
<!-- Created with Inkscape (http://www.inkscape.org/) -->

<svg
   xmlns:dc="http://purl.org/dc/elements/1.1/"
   xmlns:cc="http://creativecommons.org/ns#"
   xmlns:rdf="http://www.w3.org/1999/02/22-rdf-syntax-ns#"
   xmlns:svg="http://www.w3.org/2000/svg"
   xmlns="http://www.w3.org/2000/svg"
   xmlns:sodipodi="http://sodipodi.sourceforge.net/DTD/sodipodi-0.dtd"
   xmlns:inkscape="http://www.inkscape.org/namespaces/inkscape"
   width="950"
   height="250"
   viewBox="0 0 950 250"
   id="svg2"
   version="1.1"
   inkscape:version="0.91 r13725"
   sodipodi:docname="logotype2.svg">
  <defs
     id="defs" />
  <sodipodi:namedview
     id="base"
     pagecolor="#ffffff"
     bordercolor="#666666"
     borderopacity="1.0"
     inkscape:pageopacity="0.0"
     inkscape:pageshadow="2"
     inkscape:zoom="1"
     inkscape:cx="434.98649"
     inkscape:cy="53.444099"
     inkscape:document-units="px"
     inkscape:current-layer="svg2"
     showgrid="false"
     units="px"
     fit-margin-top="0"
     fit-margin-left="0"
     fit-margin-right="0"
     fit-margin-bottom="0"
     inkscape:window-width="1631"
     inkscape:window-height="1026"
     inkscape:window-x="1329"
     inkscape:window-y="24"
     inkscape:window-maximized="1" />
  <metadata
     id="metadata">
    <rdf:RDF>
      <cc:Work
         rdf:about="">
        <dc:format>image/svg+xml</dc:format>
        <dc:type
           rdf:resource="http://purl.org/dc/dcmitype/StillImage" />
        <dc:title></dc:title>
      </cc:Work>
    </rdf:RDF>
  </metadata>
  <path
     style="font-style:normal;font-variant:normal;font-weight:normal;font-stretch:normal;font-size:250px;font-family:Lobster;-inkscape-font-specification:Lobster"
     d="m 95.126955,0 c -15.5,0 -30.25,3.16667 -44.25,9.5 -14,6.16667 -25.25,14.33333 -33.75,24.5 -8.5,10.16667 -12.75,20.91667 -12.75,32.25 0,8.16667 2.25,14.08333 6.75,17.75 4.5,3.5 11.166667,5.25 20,5.25 0,-0.33333 -0.583333,-1.66667 -1.75,-4 -1.166667,-2.5 -1.75,-6.83333 -1.75,-13 0,-13 3,-24.08333 9,-33.25 6.166667,-9.16667 14.083333,-16 23.75,-20.5 9.66667,-4.66667 19.58333,-7 29.75,-7 11.166675,0 19.416675,2.58333 24.750005,7.75 5.5,5.16667 8.25,11.58333 8.25,19.25 0,6.33333 -1.66667,12.66667 -5,19 -3.33333,6.16667 -7.75,11.33333 -13.25,15.5 -5.500005,4 -11.416675,6 -17.750005,6 l -1.5,0 11.75,-55.5 -37,5 -34,159 36,0 20.5,-95.75 c 3.16667,-0.5 7,-0.75 11.5,-0.75 15.833335,0 23.750005,10.58333 23.750005,31.75 0,11.33333 -2.08333,21.66667 -6.25,31 -4,9.33333 -10.16667,14 -18.500005,14 -3,0 -5.83333,-0.66667 -8.5,-2 -2.5,-1.33333 -5.25,-3.66667 -8.25,-7 -2.16667,5.33333 -3.25,10.16667 -3.25,14.5 0,6.83333 2.41667,11.58333 7.25,14.25 5,2.83333 10.83333,4.25 17.5,4.25 12.833335,0 23.333335,-4 31.499995,-12 8.33333,-8.16667 14.25,-17.83333 17.75,-29 3.66668,-11.16667 5.5,-21.5 5.5,-31 0,-10.16667 -2.41667,-18.91667 -7.25,-26.25 -4.83332,-7.5 -12.25,-12.16667 -22.24999,-14 7.99999,-4.5 14.16667,-10.33333 18.49999,-17.5 4.33333,-7.16667 6.5,-14.58333 6.5,-22.25 0,-7.16667 -2,-13.75 -6,-19.75 -3.83332,-6 -9.75,-10.83333 -17.74999,-14.5 -8,-3.66667 -17.83333,-5.5 -29.500005,-5.5 z m 254.371085,23 -37,5 -7.5,34.5 -8.25,0 -2,10 8.25,0 -15,70.25 -0.21484,0 c -2,6.66667 -4.75,12 -8.25,16 -3.33332,4 -7.33332,6 -12,6 -3.66667,0 -6.33332,-0.66667 -8,-2 -1.5,-1.5 -2.25,-3.91667 -2.25,-7.25 0,-2.83333 0.33333,-5.5 1,-8 l 18,-85 -36,0 -17,80.25 c -2,6.83333 -4.66667,12.25 -8,16.25 -3.33332,3.83333 -7.33332,5.75 -12,5.75 -5,0 -7.5,-3.41667 -7.5,-10.25 0,-2.16667 0.25,-4.5 0.75,-7 l 18,-85 -36,0 -17,80.25 c -1.33332,6.66667 -2,12.08333 -2,16.25 0,10 2.41668,17.5 7.25,22.5 5,5 11.5,7.5 19.5,7.5 6.5,0 12.83333,-1.66667 19,-5 6.33333,-3.33333 12.33333,-9.58333 18,-18.75 0.83333,7.83333 3.33333,13.75 7.5,17.75 4.33333,4 10.08333,6 17.25,6 9.16668,0 18.25,-3.16667 27.25,-9.5 4.09123,-2.90105 7.88136,-6.95661 11.375,-12.14844 1.01732,5.93554 3.21234,10.65447 6.58984,14.14844 5,5 11.5,7.5 19.5,7.5 9.5,0 19.08334,-3.16667 28.75,-9.5 4.36692,-2.93637 8.37275,-7.05853 12.02539,-12.3418 1.00266,6.02564 3.20542,10.81037 6.61915,14.3418 5,5 11.5,7.5 19.5,7.5 9.5,0 19.08334,-3.16667 28.75,-9.5 4.56283,-3.06811 8.73065,-7.43415 12.51368,-13.06445 1.70553,5.32143 4.32578,9.68279 7.88086,13.06445 6.83333,6.33333 16.41665,9.5 28.75,9.5 21.73646,0 40.67591,-9.76268 56.82617,-29.26172 l -5.88477,27.76172 36,0 20,-95 c 3.83334,-3.5 6.91667,-5.91667 9.25,-7.25 2.5,-1.5 5.5,-2.25 9,-2.25 1.33334,0 2.25,0.5 2.75,1.5 0.5,1 1,2.58333 1.5,4.75 0.66667,3.33333 1.58334,5.91667 2.75,7.75 1.33334,1.66667 3.83334,2.5 7.5,2.5 5.66667,0 10.08334,-1.83333 13.25,-5.5 3.16667,-3.66667 4.75,-7.91667 4.75,-12.75 0,-5.16667 -1.58333,-9.58333 -4.75,-13.25 -3,-3.66667 -7.16666,-5.5 -12.5,-5.5 -5.33333,0 -10.33333,1.33333 -15,4 -4.5,2.66667 -9.58333,6.5 -15.25,11.5 l 3.25,-15.5 -36,0 -17.01368,80.25 -0.17772,0 c -7.66667,8.5 -14.75,14.83333 -21.25,19 -6.33335,4.16667 -14,6.25 -23,6.25 -6.33335,0 -10.91667,-1.41667 -13.75,-4.25 -2.83335,-3 -4.25,-8.58333 -4.25,-16.75 0,-1.66667 0.16665,-5 0.5,-10 10,-0.66667 19.41665,-3.33333 28.25,-8 8.83333,-4.83333 15.91665,-11.16667 21.25,-19 5.33333,-7.83333 8,-16.41667 8,-25.75 0,-16 -9.16667,-24 -27.5,-24 -15.66667,0 -28.58335,5.08333 -38.75,15.25 -10.16667,10 -17.5,21.91667 -22,35.75 -4.5,13.83333 -6.75,26.5 -6.75,38 0,0.45291 0.014,0.8909 0.0215,1.33594 -1.60656,3.08683 -3.56932,5.81736 -5.91602,8.16406 -4.16666,4 -8.66666,6 -13.5,6 -3.66666,0 -6.33333,-0.66667 -8,-2 -1.5,-1.5 -2.25,-3.91667 -2.25,-7.25 0,-2.83333 0.33334,-5.5 1,-8 l 16,-75 15,0 2,-10 -15,0 8.5,-39.5 -37,5 -7.5,34.5 -8.25,0 -2,10 8.25,0 -15,70.25 -0.14453,0 c -1.83333,6.5 -4.83333,11.83333 -9,16 -4.16666,4 -8.66666,6 -13.5,6 -3.66666,0 -6.33333,-0.66667 -8,-2 -1.5,-1.5 -2.25,-3.91667 -2.25,-7.25 0,-2.83333 0.33334,-5.5 1,-8 l 16,-75 15,0 2,-10 -15,0 8.5,-39.5 z m 504.37501,30.25 -18.99218,89.5 -0.22267,0 c -2,6.66667 -4.75,12 -8.25,16 -3.33332,4 -7.33332,6 -12,6 -3.66666,0 -6.33332,-0.66667 -8,-2 -1.5,-1.5 -2.25,-3.91667 -2.25,-7.25 0,-2.83333 0.33334,-5.5 1,-8 l 18,-85 -36,0 -17,80.25 c -2,6.83333 -4.66666,12.25 -8,16.25 -3.33332,3.83333 -7.33332,5.75 -12,5.75 -5,0 -7.5,-3.41667 -7.5,-10.25 0,-2.16667 0.25,-4.5 0.75,-7 l 18,-85 -36,0 -17,80.25 -0.1914,0 c -7.66667,8.5 -14.75,14.83333 -21.25,19 -6.33334,4.16667 -14,6.25 -23,6.25 -6.33334,0 -10.91667,-1.41667 -13.75,-4.25 -2.83334,-3 -4.25,-8.58333 -4.25,-16.75 0,-9.33333 1.58333,-19.83333 4.75,-31.5 3.16666,-11.66667 7.25,-21.58333 12.25,-29.75 5,-8.16667 10,-12.25 15,-12.25 2.33333,0 4.08333,0.91667 5.25,2.75 1.16666,1.83333 1.75,4.33333 1.75,7.5 0,4.33333 -1,9.25 -3,14.75 3,2 5.91666,3 8.75,3 3.83333,0 7,-1.58333 9.5,-4.75 2.5,-3.16667 3.75,-7.66667 3.75,-13.5 0,-6.66667 -2.16667,-12.16667 -6.5,-16.5 -4.16667,-4.33333 -11.25,-6.5 -21.25,-6.5 -15.5,0 -28.33334,5.08333 -38.5,15.25 -10,10 -17.33334,21.91667 -22,35.75 -4.5,13.83333 -6.75,26.5 -6.75,38 0,13.66667 3.41666,23.75 10.25,30.25 6.83333,6.33333 16.41666,9.5 28.75,9.5 22.47663,0 41.96328,-10.43554 58.46679,-31.28516 -0.0131,0.43746 -0.0254,0.87225 -0.0254,1.28516 0,10 2.41668,17.5 7.25,22.5 5,5 11.5,7.5 19.5,7.5 6.5,0 12.83334,-1.66667 19,-5 6.33334,-3.33333 12.33334,-9.58333 18,-18.75 0.83334,7.83333 3.33334,13.75 7.5,17.75 4.33334,4 10.08334,6 17.25,6 9.16668,0 18.25,-3.16667 27.25,-9.5 2.10365,-1.49167 4.12466,-3.30112 6.07032,-5.39844 L 812.12305,250 l 37.75,-9 13,-61 c 3.5,6 10.58333,9 21.25,9 15,0 27.08333,-4.66667 36.25,-14 9.16666,-9.5 15.66666,-20.91667 19.5,-34.25 3.83333,-13.5 5.75,-26.83333 5.75,-40 0,-14 -2.75,-24.08333 -8.25,-30.25 -5.5,-6.16667 -12.91667,-9.25 -22.25,-9.25 -11.16667,0 -20.91667,3.58333 -29.25,10.75 l 4,-18.75 -36,0 z M 488.03712,73.5 c 4.16665,0 6.25,3.41667 6.25,10.25 0,6.83333 -1.75,13.33333 -5.25,19.5 -3.33335,6.16667 -7.83335,11.25 -13.5,15.25 -5.5,4 -11.33335,6.16667 -17.5,6.5 2.5,-13.33333 6.58333,-25.25 12.25,-35.75 5.83333,-10.5 11.75,-15.75 17.75,-15.75 z m 410.83593,5.75 c 8.33334,0 12.5,6.91667 12.5,20.75 0,9 -1.25,18.75 -3.75,29.25 -2.33333,10.33333 -6.16666,19.25 -11.5,26.75 -5.16666,7.5 -11.75,11.25 -19.75,11.25 -5,0 -8.16666,-1.91667 -9.5,-5.75 l 14.75,-70 c 2.33334,-3.83333 5,-6.83333 8,-9 3.16667,-2.16667 6.25,-3.25 9.25,-3.25 z"
     id="logotype"
     inkscape:connector-curvature="0"
     inkscape:label="" />
</svg>
